<svg xmlns="http://www.w3.org/2000/svg" xmlns:xlink="http://www.w3.org/1999/xlink" version="1.1" width="1000" height="1000" viewBox="0 0 1000 1000" xml:space="preserve">
<desc>Created with Fabric.js 3.5.0</desc>
<defs>
</defs>
<rect x="0" y="0" width="100%" height="100%" fill="rgba(255,255,255,0)"/>
<g transform="matrix(31.1973 0 0 31.1973 499.1568 501.2183)" id="648078">
<g style="" vector-effect="non-scaling-stroke">
		<g transform="matrix(1 0 0 1 0 0)" id="Uploaded to svgrepo.com">
<path style="stroke: none; stroke-width: 1; stroke-dasharray: none; stroke-linecap: butt; stroke-dashoffset: 0; stroke-linejoin: miter; stroke-miterlimit: 4; is-custom-font: none; font-file-url: none; fill: rgb(209,113,42); fill-rule: nonzero; opacity: 1;" transform=" translate(-16, -16)" d="M 16 29.5 c -1.75 0 -3.357 -0.81 -4.409 -2.223 l -0.177 -0.238 l -0.294 0.042 c -0.264 0.038 -0.531 0.057 -0.797 0.057 c -1.469 0 -2.843 -0.565 -3.869 -1.591 c -1.223 -1.223 -1.782 -2.923 -1.535 -4.666 l 0.042 -0.294 l -0.238 -0.177 C 3.31 19.357 2.5 17.75 2.5 16 s 0.81 -3.357 2.223 -4.409 l 0.238 -0.177 L 4.919 11.12 C 4.672 9.377 5.231 7.677 6.454 6.454 c 1.026 -1.026 2.399 -1.591 3.869 -1.591 c 0.266 0 0.533 0.019 0.797 0.057 l 0.294 0.042 l 0.177 -0.238 C 12.643 3.31 14.25 2.5 16 2.5 s 3.357 0.81 4.409 2.223 l 0.177 0.238 l 0.294 -0.042 c 0.264 -0.038 0.531 -0.057 0.797 -0.057 c 1.469 0 2.843 0.565 3.869 1.591 c 1.223 1.223 1.782 2.923 1.535 4.666 l -0.042 0.294 l 0.238 0.177 C 28.69 12.643 29.5 14.25 29.5 16 s -0.81 3.357 -2.223 4.409 l -0.238 0.177 l 0.042 0.294 c 0.248 1.743 -0.312 3.443 -1.535 4.666 c -1.026 1.026 -2.399 1.591 -3.868 1.591 c 0 0 0 0 0 0 c -0.266 0 -0.533 -0.019 -0.797 -0.057 l -0.294 -0.042 l -0.177 0.238 C 19.357 28.69 17.75 29.5 16 29.5 z" stroke-linecap="round"/>
</g>
		<g transform="matrix(1 0 0 1 0 0)" id="Uploaded to svgrepo.com">
<path style="stroke: none; stroke-width: 1; stroke-dasharray: none; stroke-linecap: butt; stroke-dashoffset: 0; stroke-linejoin: miter; stroke-miterlimit: 4; is-custom-font: none; font-file-url: none; fill: rgb(224,168,56); fill-rule: nonzero; opacity: 1;" transform=" translate(-16, -16)" d="M 16 24.5 c -1.05 0 -2.04 -0.481 -2.715 -1.319 l -0.171 -0.213 l -0.272 0.029 c -0.131 0.014 -0.262 0.021 -0.393 0.021 c -0.936 0 -1.809 -0.358 -2.459 -1.008 c -0.743 -0.743 -1.103 -1.782 -0.987 -2.853 l 0.029 -0.272 l -0.213 -0.171 C 7.981 18.04 7.5 17.051 7.5 16 s 0.481 -2.04 1.319 -2.714 l 0.213 -0.171 l -0.029 -0.272 c -0.116 -1.07 0.244 -2.11 0.987 -2.853 c 0.65 -0.65 1.523 -1.008 2.459 -1.008 c 0.131 0 0.262 0.007 0.393 0.021 l 0.272 0.029 l 0.171 -0.213 C 13.96 7.981 14.949 7.5 16 7.5 s 2.04 0.481 2.714 1.319 l 0.171 0.213 l 0.272 -0.029 c 0.131 -0.014 0.262 -0.021 0.393 -0.021 c 0.937 0 1.81 0.358 2.459 1.008 c 0.743 0.743 1.103 1.782 0.987 2.853 l -0.029 0.272 l 0.213 0.171 C 24.019 13.96 24.5 14.949 24.5 16 s -0.481 2.04 -1.319 2.714 l -0.213 0.171 l 0.029 0.272 c 0.116 1.07 -0.244 2.11 -0.987 2.853 c -0.65 0.65 -1.523 1.008 -2.459 1.008 l 0 0 c -0.131 0 -0.262 -0.007 -0.393 -0.021 l -0.272 -0.029 l -0.171 0.213 C 18.04 24.019 17.05 24.5 16 24.5 z" stroke-linecap="round"/>
</g>
		<g transform="matrix(1 0 0 1 0 0)" id="Uploaded to svgrepo.com">
<path style="stroke: none; stroke-width: 1; stroke-dasharray: none; stroke-linecap: butt; stroke-dashoffset: 0; stroke-linejoin: miter; stroke-miterlimit: 4; is-custom-font: none; font-file-url: none; fill: rgb(35,31,32); fill-rule: nonzero; opacity: 1;" transform=" translate(-16, -16)" d="M 30 16 c 0 -1.972 -0.956 -3.716 -2.424 -4.81 c 0.256 -1.805 -0.288 -3.701 -1.676 -5.089 c -1.167 -1.167 -2.693 -1.738 -4.222 -1.738 c -0.29 0 -0.58 0.021 -0.867 0.061 C 19.716 2.956 17.972 2 16 2 s -3.716 0.956 -4.81 2.424 c -0.288 -0.041 -0.578 -0.061 -0.867 -0.061 c -1.529 0 -3.055 0.571 -4.222 1.738 C 4.713 7.489 4.168 9.385 4.424 11.19 C 2.956 12.284 2 14.028 2 16 s 0.956 3.716 2.424 4.81 c -0.256 1.805 0.288 3.701 1.676 5.089 c 1.167 1.167 2.693 1.738 4.222 1.738 c 0.29 0 0.58 -0.021 0.867 -0.061 C 12.284 29.044 14.028 30 16 30 s 3.716 -0.956 4.81 -2.424 c 0.288 0.041 0.578 0.061 0.867 0.061 c 1.529 0 3.055 -0.571 4.222 -1.738 c 1.388 -1.388 1.933 -3.285 1.676 -5.089 C 29.044 19.716 30 17.972 30 16 z M 26.978 20.008 l -0.476 0.355 l 0.084 0.588 c 0.225 1.585 -0.283 3.131 -1.393 4.242 c -0.932 0.932 -2.18 1.445 -3.515 1.445 c -0.242 0 -0.486 -0.017 -0.727 -0.051 l -0.588 -0.084 l -0.355 0.476 C 19.051 28.263 17.59 29 16 29 s -3.051 -0.737 -4.008 -2.022 l -0.355 -0.476 l -0.588 0.084 c -0.24 0.034 -0.485 0.051 -0.727 0.051 c -1.335 0 -2.583 -0.513 -3.515 -1.445 c -1.111 -1.111 -1.618 -2.657 -1.393 -4.242 l 0.084 -0.588 l -0.476 -0.355 C 3.737 19.051 3 17.59 3 16 c 0 -1.591 0.737 -3.051 2.022 -4.008 l 0.476 -0.355 l -0.084 -0.588 C 5.189 9.464 5.697 7.918 6.808 6.808 c 0.932 -0.932 2.18 -1.445 3.515 -1.445 c 0.242 0 0.487 0.017 0.727 0.051 l 0.588 0.084 l 0.355 -0.476 C 12.949 3.737 14.41 3 16 3 s 3.051 0.737 4.008 2.021 l 0.355 0.476 l 0.588 -0.084 c 0.24 -0.034 0.485 -0.051 0.727 -0.051 c 1.335 0 2.583 0.513 3.515 1.445 c 1.111 1.111 1.618 2.657 1.393 4.242 l -0.084 0.588 l 0.476 0.355 C 28.263 12.949 29 14.409 29 16 C 29 17.59 28.263 19.051 26.978 20.008 z M 23.494 12.896 c 0.126 -1.163 -0.239 -2.368 -1.13 -3.26 c -0.777 -0.778 -1.794 -1.154 -2.813 -1.154 c -0.149 0 -0.298 0.008 -0.447 0.024 C 18.371 7.595 17.26 7 16 7 s -2.371 0.595 -3.104 1.506 c -0.148 -0.016 -0.297 -0.024 -0.447 -0.024 c -1.019 0 -2.036 0.377 -2.813 1.154 c -0.891 0.891 -1.256 2.097 -1.13 3.26 C 7.595 13.629 7 14.74 7 16 c 0 1.26 0.595 2.371 1.506 3.104 c -0.126 1.163 0.239 2.368 1.13 3.26 c 0.777 0.777 1.795 1.154 2.813 1.154 c 0.149 0 0.298 -0.008 0.446 -0.024 C 13.629 24.405 14.74 25 16 25 s 2.371 -0.595 3.104 -1.506 c 0.148 0.016 0.297 0.024 0.446 0.024 c 1.019 0 2.036 -0.377 2.813 -1.154 c 0.891 -0.891 1.256 -2.097 1.13 -3.26 C 24.405 18.371 25 17.26 25 16 C 25 14.74 24.405 13.629 23.494 12.896 z M 22.867 18.325 l -0.426 0.343 l 0.059 0.544 c 0.099 0.919 -0.208 1.81 -0.843 2.445 c -0.556 0.555 -1.304 0.861 -2.106 0.861 c -0.113 0 -0.226 -0.006 -0.339 -0.018 l -0.544 -0.059 l -0.343 0.426 C 17.746 23.587 16.898 24 16 24 s -1.746 -0.413 -2.325 -1.133 l -0.343 -0.426 L 12.788 22.5 c -0.113 0.012 -0.226 0.018 -0.339 0.018 c -0.803 0 -1.551 -0.306 -2.106 -0.861 C 9.708 21.022 9.401 20.13 9.5 19.212 l 0.059 -0.544 l -0.426 -0.343 C 8.413 17.746 8 16.898 8 16 c 0 -0.898 0.413 -1.746 1.133 -2.325 l 0.426 -0.343 L 9.5 12.788 c -0.099 -0.919 0.208 -1.81 0.843 -2.445 c 0.556 -0.556 1.304 -0.861 2.106 -0.861 c 0.113 0 0.226 0.006 0.339 0.018 l 0.544 0.059 l 0.343 -0.426 C 14.254 8.413 15.102 8 16 8 s 1.746 0.413 2.325 1.133 l 0.343 0.426 L 19.212 9.5 c 0.113 -0.012 0.226 -0.018 0.339 -0.018 c 0.803 0 1.551 0.306 2.106 0.861 c 0.635 0.635 0.943 1.526 0.843 2.445 l -0.059 0.544 l 0.426 0.343 C 23.587 14.254 24 15.102 24 16 C 24 16.898 23.587 17.746 22.867 18.325 z" stroke-linecap="round"/>
</g>
</g>
</g>
</svg>