<svg width="29" height="30" viewBox="0 0 29 30" fill="none" xmlns="http://www.w3.org/2000/svg">
<path d="M5.29689 18.782L8.84313 18.5356L10.9645 20.6569L10.868 23.5818L9.06813 22.5532L8.93956 25.5102L7.43964 23.2389L5.3076 24.8996L5.66116 21.7176L3.8934 20.6569L6.7111 20.1962L5.29689 18.782Z" fill="#FF8934" stroke="black"/>
<path d="M9.55434 17.0529L9.19447 15.4843L10.101 14.5778L14.0294 10.6494L15.8425 8.8363L20.6637 13.6575L18.8506 15.4706L14.9222 19.399L14.0157 20.3055L12.4471 19.9456L9.55434 17.0529Z" fill="#DC4D4D" stroke="black"/>
<path d="M12.4471 19.9456L9.55435 17.0529L8.10388 18.5034L10.9966 21.3961L12.4471 19.9456Z" fill="#FBE200" stroke="black"/>
<path d="M8.23575 10.6577L14.392 10.2868L9.67799 15.0009L6.06004 12.8334L8.23575 10.6577Z" fill="#ACA7A7" stroke="black"/>
<path d="M18.8424 21.2642L19.2132 15.108L14.4992 19.822L16.6666 23.44L18.8424 21.2642Z" fill="#ACA7A7" stroke="black"/>
<path d="M16.0774 13.4226L12.0886 17.4114" stroke="white"/>
<path d="M15.8425 8.83634L20.6637 13.6575L22.1141 12.207L17.2929 7.38586L15.8425 8.83634Z" fill="#FBE200" stroke="black"/>
<path d="M22.1142 12.207L17.293 7.38584C18.8643 5.81449 20.7486 4.89448 23.6924 5.80763C24.6055 8.75143 23.6855 10.6357 22.1142 12.207Z" fill="#DC4D4D" stroke="black"/>
</svg>
