<svg xmlns="http://www.w3.org/2000/svg" xmlns:xlink="http://www.w3.org/1999/xlink" version="1.1" width="1000" height="1000" viewBox="0 0 1000 1000" xml:space="preserve">
<desc>Created with Fabric.js 3.5.0</desc>
<defs>
</defs>
<rect x="0" y="0" width="100%" height="100%" fill="rgba(255,255,255,0)"/>
<g transform="matrix(43.29 0 0 43.29 499.9996 499.9995)" id="141065">
<g style="" vector-effect="non-scaling-stroke">
		<g transform="matrix(1 0 0 1 -4 -7.5)">
<path style="stroke: rgb(0,0,0); stroke-width: 1; stroke-dasharray: none; stroke-linecap: butt; stroke-dashoffset: 0; stroke-linejoin: miter; stroke-miterlimit: 4; is-custom-font: none; font-file-url: none; fill: none; fill-rule: nonzero; opacity: 1;" transform=" translate(-6, -3)" d="M 8 5 L 4 1" stroke-linecap="round"/>
</g>
		<g transform="matrix(1 0 0 1 4 -7.5)">
<path style="stroke: rgb(0,0,0); stroke-width: 1; stroke-dasharray: none; stroke-linecap: butt; stroke-dashoffset: 0; stroke-linejoin: miter; stroke-miterlimit: 4; is-custom-font: none; font-file-url: none; fill: none; fill-rule: nonzero; opacity: 1;" transform=" translate(-14, -3)" d="M 12 5 L 16 1" stroke-linecap="round"/>
</g>
		<g transform="matrix(1 0 0 1 0 2)">
<rect style="stroke: rgb(0,0,0); stroke-width: 1; stroke-dasharray: none; stroke-linecap: butt; stroke-dashoffset: 0; stroke-linejoin: miter; stroke-miterlimit: 4; is-custom-font: none; font-file-url: none; fill: rgb(88,207,179); fill-rule: nonzero; opacity: 1;" x="-9.5" y="-8" rx="2.5" ry="2.5" width="19" height="16"/>
</g>
		<g transform="matrix(1 0 0 1 -3.5 -1)">
<rect style="stroke: rgb(0,0,0); stroke-width: 1; stroke-dasharray: none; stroke-linecap: butt; stroke-dashoffset: 0; stroke-linejoin: miter; stroke-miterlimit: 4; is-custom-font: none; font-file-url: none; fill: rgb(255,255,255); fill-rule: nonzero; opacity: 1;" x="-2" y="-2" rx="0.5" ry="0.5" width="4" height="4"/>
</g>
		<g transform="matrix(1 0 0 1 3.5 -1)">
<rect style="stroke: rgb(0,0,0); stroke-width: 1; stroke-dasharray: none; stroke-linecap: butt; stroke-dashoffset: 0; stroke-linejoin: miter; stroke-miterlimit: 4; is-custom-font: none; font-file-url: none; fill: rgb(255,255,255); fill-rule: nonzero; opacity: 1;" x="-2" y="-2" rx="0.5" ry="0.5" width="4" height="4"/>
</g>
</g>
</g>
<g transform="matrix(25.1211 0 0 25.1211 312.5276 460.1168)" id="895087">
<path style="stroke: none; stroke-width: 1; stroke-dasharray: none; stroke-linecap: butt; stroke-dashoffset: 0; stroke-linejoin: miter; stroke-miterlimit: 4; is-custom-font: none; font-file-url: none; fill: rgb(3,7,8); fill-rule: evenodd; opacity: 1;" vector-effect="non-scaling-stroke" transform=" translate(-8, -8)" d="M 5.17157 8.00003 L 0.585785 3.41424 L 3.41421 0.585815 L 8 5.1716 L 12.5858 0.585815 L 15.4142 3.41424 L 10.8284 8.00003 L 15.4142 12.5858 L 12.5858 15.4142 L 8 10.8285 L 3.41421 15.4142 L 0.585785 12.5858 L 5.17157 8.00003 Z" stroke-linecap="round"/>
</g>
<g transform="matrix(25.1211 0 0 25.1211 700.0772 460.1171)" id="755738">
<path style="stroke: none; stroke-width: 1; stroke-dasharray: none; stroke-linecap: butt; stroke-dashoffset: 0; stroke-linejoin: miter; stroke-miterlimit: 4; is-custom-font: none; font-file-url: none; fill: rgb(3,7,8); fill-rule: evenodd; opacity: 1;" vector-effect="non-scaling-stroke" transform=" translate(-8, -8)" d="M 5.17157 8.00003 L 0.585785 3.41424 L 3.41421 0.585815 L 8 5.1716 L 12.5858 0.585815 L 15.4142 3.41424 L 10.8284 8.00003 L 15.4142 12.5858 L 12.5858 15.4142 L 8 10.8285 L 3.41421 15.4142 L 0.585785 12.5858 L 5.17157 8.00003 Z" stroke-linecap="round"/>
</g>
</svg>